Comme-ExtraBold.ufo
<glyph name="numbersign" format="1">
  <advance width="1110"/>
  <unicode hex="0023"/>
  <outline>
    <contour>
      <point x="430" y="572" type="line"/>
      <point x="493" y="945" type="line"/>
      <point x="709" y="945" type="line"/>
      <point x="644" y="572" type="line"/>
    </contour>
    <contour>
      <point x="153" y="1" type="line"/>
      <point x="326" y="1" type="line"/>
      <point x="404" y="439" type="line"/>
      <point x="622" y="439" type="line"/>
      <point x="543" y="1" type="line"/>
      <point x="719" y="1" type="line"/>
      <point x="800" y="439" type="line"/>
      <point x="960" y="439" type="line"/>
      <point x="977" y="572" type="line"/>
      <point x="823" y="572" type="line"/>
      <point x="886" y="945" type="line"/>
      <point x="1039" y="945" type="line"/>
      <point x="1058" y="1082" type="line"/>
      <point x="909" y="1082" type="line"/>
      <point x="978" y="1465" type="line"/>
      <point x="799" y="1465" type="line"/>
      <point x="733" y="1082" type="line"/>
      <point x="515" y="1082" type="line"/>
      <point x="584" y="1465" type="line"/>
      <point x="408" y="1465" type="line"/>
      <point x="342" y="1082" type="line"/>
      <point x="146" y="1082" type="line"/>
      <point x="128" y="945" type="line"/>
      <point x="319" y="945" type="line"/>
      <point x="254" y="572" type="line"/>
      <point x="83" y="572" type="line"/>
      <point x="63" y="439" type="line"/>
      <point x="231" y="439" type="line"/>
    </contour>
  </outline>
</glyph>
<glyph name="asterisk" format="1">
  <advance width="1047"/>
  <unicode hex="002A"/>
  <outline>
    <contour>
      <point x="358" y="476" type="line"/>
      <point x="525" y="810" type="line"/>
      <point x="699" y="474" type="line"/>
      <point x="697" y="474"/>
      <point x="925" y="606"/>
      <point x="925" y="606" type="curve" smooth="yes"/>
      <point x="928" y="607"/>
      <point x="727" y="869"/>
      <point x="684" y="926" type="curve"/>
      <point x="1033" y="1007" type="line"/>
      <point x="959" y="1259" type="line"/>
      <point x="620" y="1112" type="line"/>
      <point x="652" y="1521" type="line"/>
      <point x="399" y="1521" type="line"/>
      <point x="433" y="1112" type="line"/>
      <point x="96" y="1259" type="line"/>
      <point x="23" y="1007" type="line"/>
      <point x="368" y="926" type="line"/>
      <point x="127" y="606" type="line"/>
    </contour>
  </outline>
</glyph>
<glyph name="semicolon" format="1">
  <advance width="764"/>
  <unicode hex="003B"/>
  <outline>
    <contour>
      <point x="384" y="787" type="curve" smooth="yes"/>
      <point x="480" y="787"/>
      <point x="557" y="840"/>
      <point x="557" y="948" type="curve" smooth="yes"/>
      <point x="557" y="1060"/>
      <point x="480" y="1116"/>
      <point x="384" y="1116" type="curve" smooth="yes"/>
      <point x="290" y="1116"/>
      <point x="212" y="1060"/>
      <point x="212" y="948" type="curve" smooth="yes"/>
      <point x="212" y="838"/>
      <point x="292" y="787"/>
    </contour>
    <contour>
      <point x="203" y="-350" type="curve"/>
      <point x="413" y="-350" type="line"/>
      <point x="537" y="104" type="line"/>
      <point x="537" y="281" type="line"/>
      <point x="240" y="281" type="line"/>
      <point x="240" y="218"/>
      <point x="203" y="-350"/>
    </contour>
  </outline>
</glyph>
<glyph name="L" format="1">
  <advance width="1205"/>
  <unicode hex="004C"/>
  <outline>
    <contour>
      <point x="373" y="1456" type="move" name="top"/>
    </contour>
    <contour>
      <point x="171" y="1456" type="line"/>
      <point x="171" y="0" type="line"/>
      <point x="1166" y="0" type="line"/>
      <point x="1186" y="239" type="line"/>
      <point x="552" y="239" type="line"/>
      <point x="552" y="1456" type="line"/>
    </contour>
  </outline>
</glyph>
<glyph name="O" format="1">
  <advance width="1661"/>
  <unicode hex="004F"/>
  <outline>
    <contour>
      <point x="821" y="1456" type="move" name="top"/>
    </contour>
    <contour>
      <point x="1138" y="722" type="curve" smooth="yes"/>
      <point x="1138" y="420"/>
      <point x="1034" y="250"/>
      <point x="833" y="250" type="curve" smooth="yes"/>
      <point x="630" y="250"/>
      <point x="522" y="419"/>
      <point x="522" y="722" type="curve" smooth="yes"/>
      <point x="522" y="1023"/>
      <point x="631" y="1204"/>
      <point x="832" y="1204" type="curve" smooth="yes"/>
      <point x="1035" y="1204"/>
      <point x="1138" y="1023"/>
    </contour>
    <contour>
      <point x="116" y="723" type="curve" smooth="yes"/>
      <point x="116" y="247"/>
      <point x="376" y="-22"/>
      <point x="832" y="-22" type="curve" smooth="yes"/>
      <point x="1291" y="-22"/>
      <point x="1545" y="246"/>
      <point x="1545" y="724" type="curve" smooth="yes"/>
      <point x="1545" y="1198"/>
      <point x="1288" y="1476"/>
      <point x="831" y="1476" type="curve" smooth="yes"/>
      <point x="376" y="1476"/>
      <point x="116" y="1200"/>
    </contour>
  </outline>
</glyph>
<glyph name="T" format="1">
  <advance width="1280"/>
  <unicode hex="0054"/>
  <outline>
    <contour>
      <point x="647" y="1456" type="move" name="top"/>
    </contour>
    <contour>
      <point x="42" y="1456" type="line"/>
      <point x="42" y="1217" type="line"/>
      <point x="451" y="1217" type="line"/>
      <point x="451" y="-6" type="line"/>
      <point x="830" y="-6" type="line"/>
      <point x="830" y="1217" type="line"/>
      <point x="1238" y="1217" type="line"/>
      <point x="1238" y="1456" type="line"/>
    </contour>
  </outline>
</glyph>
<glyph name="a" format="1">
  <advance width="1162"/>
  <unicode hex="0061"/>
  <outline>
    <contour>
      <point x="561" y="1081" type="move" name="top"/>
    </contour>
    <contour>
      <point x="703" y="250" type="line"/>
      <point x="675" y="219"/>
      <point x="619" y="176"/>
      <point x="530" y="176" type="curve" smooth="yes"/>
      <point x="465" y="176"/>
      <point x="402" y="217"/>
      <point x="402" y="311" type="curve" smooth="yes"/>
      <point x="402" y="433"/>
      <point x="513" y="466"/>
      <point x="638" y="466" type="curve"/>
      <point x="703" y="465" type="line"/>
    </contour>
    <contour>
      <point x="415" y="-16" type="curve" smooth="yes"/>
      <point x="582" y="-16"/>
      <point x="681" y="44"/>
      <point x="755" y="118" type="curve"/>
      <point x="792" y="0" type="line"/>
      <point x="1055" y="0" type="line"/>
      <point x="1055" y="633" type="line" smooth="yes"/>
      <point x="1055" y="967"/>
      <point x="854" y="1101"/>
      <point x="594" y="1101" type="curve" smooth="yes"/>
      <point x="445" y="1101"/>
      <point x="278" y="1058"/>
      <point x="124" y="981" type="curve"/>
      <point x="189" y="769" type="line"/>
      <point x="311" y="818"/>
      <point x="436" y="853"/>
      <point x="532" y="853" type="curve" smooth="yes"/>
      <point x="637" y="853"/>
      <point x="705" y="810"/>
      <point x="705" y="699" type="curve" smooth="yes"/>
      <point x="705" y="626" type="line"/>
      <point x="562" y="627" type="line"/>
      <point x="557" y="627" type="line" smooth="yes"/>
      <point x="341" y="627"/>
      <point x="84" y="559"/>
      <point x="84" y="305" type="curve" smooth="yes"/>
      <point x="84" y="93"/>
      <point x="220" y="-16"/>
    </contour>
  </outline>
</glyph>
<glyph name="e" format="1">
  <advance width="1199"/>
  <unicode hex="0065"/>
  <outline>
    <contour>
      <point x="628" y="1082" type="move" name="top"/>
    </contour>
    <contour>
      <point x="441" y="624" type="line"/>
      <point x="449.057" y="805.284"/>
      <point x="528.26" y="877"/>
      <point x="642" y="877" type="curve" smooth="yes"/>
      <point x="750" y="877"/>
      <point x="806" y="802"/>
      <point x="806" y="624" type="curve"/>
    </contour>
    <contour>
      <point x="662" y="-20" type="curve" smooth="yes"/>
      <point x="845" y="-20"/>
      <point x="1008" y="35"/>
      <point x="1092" y="114" type="curve"/>
      <point x="1015" y="297" type="line"/>
      <point x="998" y="297" type="line"/>
      <point x="914" y="244"/>
      <point x="813" y="208"/>
      <point x="702" y="208" type="curve" smooth="yes"/>
      <point x="559" y="208"/>
      <point x="454" y="287"/>
      <point x="438" y="434" type="curve"/>
      <point x="1093" y="434" type="line"/>
      <point x="1093" y="434"/>
      <point x="1106" y="491"/>
      <point x="1106" y="577" type="curve" smooth="yes"/>
      <point x="1097" y="884"/>
      <point x="968" y="1102"/>
      <point x="624" y="1102" type="curve" smooth="yes"/>
      <point x="292" y="1102"/>
      <point x="79" y="887"/>
      <point x="79" y="542" type="curve" smooth="yes"/>
      <point x="79" y="196"/>
      <point x="306" y="-20"/>
    </contour>
  </outline>
</glyph>
<glyph name="k" format="1">
  <advance width="1218"/>
  <unicode hex="006B"/>
  <outline>
    <contour>
      <point x="137" y="0" type="line"/>
      <point x="497" y="0" type="line"/>
      <point x="497" y="427" type="line"/>
      <point x="544" y="475" type="line"/>
      <point x="846" y="0" type="line"/>
      <point x="1206" y="0" type="line"/>
      <point x="1206" y="31" type="line"/>
      <point x="814" y="613" type="line"/>
      <point x="1191" y="1064" type="line"/>
      <point x="1191" y="1082" type="line"/>
      <point x="818" y="1082" type="line"/>
      <point x="492" y="701" type="line"/>
      <point x="497" y="840" type="line"/>
      <point x="497" y="1560" type="line"/>
      <point x="137" y="1540" type="line"/>
    </contour>
  </outline>
</glyph>
<glyph name="n" format="1">
  <advance width="1267"/>
  <unicode hex="006E"/>
  <outline>
    <contour>
      <point x="702" y="1082" type="move" name="top"/>
    </contour>
    <contour>
      <point x="131" y="0" type="line"/>
      <point x="492" y="0" type="line"/>
      <point x="492" y="622" type="line" smooth="yes"/>
      <point x="492" y="802"/>
      <point x="561" y="873"/>
      <point x="655" y="873" type="curve" smooth="yes"/>
      <point x="746" y="873"/>
      <point x="789" y="817"/>
      <point x="789" y="627" type="curve" smooth="yes"/>
      <point x="789" y="0" type="line"/>
      <point x="1150" y="0" type="line"/>
      <point x="1150" y="671" type="line" smooth="yes"/>
      <point x="1150" y="939"/>
      <point x="1024" y="1102"/>
      <point x="782" y="1102" type="curve" smooth="yes"/>
      <point x="606" y="1102"/>
      <point x="511" y="1012"/>
      <point x="459" y="913" type="curve"/>
      <point x="441" y="1082" type="line"/>
      <point x="131" y="1082" type="line"/>
    </contour>
  </outline>
</glyph>
<glyph name="p" format="1">
  <advance width="1272"/>
  <unicode hex="0070"/>
  <outline>
    <contour>
      <point x="661" y="1082" type="move" name="top"/>
    </contour>
    <contour>
      <point x="654" y="208" type="curve" smooth="yes"/>
      <point x="569" y="208"/>
      <point x="521" y="246"/>
      <point x="486" y="290" type="curve"/>
      <point x="486" y="750" type="line"/>
      <point x="516" y="825"/>
      <point x="580" y="873"/>
      <point x="669" y="873" type="curve" smooth="yes"/>
      <point x="757" y="873"/>
      <point x="830" y="806"/>
      <point x="830" y="549" type="curve" smooth="yes"/>
      <point x="830" y="262"/>
      <point x="741" y="208"/>
    </contour>
    <contour>
      <point x="131" y="-476" type="line"/>
      <point x="485" y="-476" type="line"/>
      <point x="485" y="-55" type="line"/>
      <point x="481" y="103" type="line"/>
      <point x="531" y="38"/>
      <point x="617" y="-20"/>
      <point x="749" y="-20" type="curve" smooth="yes"/>
      <point x="1045" y="-20"/>
      <point x="1189" y="216"/>
      <point x="1189" y="549" type="curve" smooth="yes"/>
      <point x="1189" y="862"/>
      <point x="1048" y="1102"/>
      <point x="760" y="1102" type="curve" smooth="yes"/>
      <point x="599" y="1102"/>
      <point x="505" y="1017"/>
      <point x="458" y="908" type="curve"/>
      <point x="450" y="1082" type="line"/>
      <point x="131" y="1082" type="line"/>
    </contour>
  </outline>
</glyph>
<glyph name="braceleft" format="1">
  <advance width="960"/>
  <unicode hex="007B"/>
  <outline>
    <contour>
      <point x="829" y="-318" type="curve"/>
      <point x="829" y="-129" type="line"/>
      <point x="702" y="-125"/>
      <point x="646" y="-115"/>
      <point x="646" y="23" type="curve" smooth="yes"/>
      <point x="646" y="366" type="line" smooth="yes"/>
      <point x="646" y="474"/>
      <point x="629" y="602"/>
      <point x="446" y="638" type="curve"/>
      <point x="629" y="674"/>
      <point x="646" y="802"/>
      <point x="646" y="911" type="curve" smooth="yes"/>
      <point x="646" y="1254" type="line" smooth="yes"/>
      <point x="646" y="1392"/>
      <point x="702" y="1402"/>
      <point x="829" y="1405" type="curve"/>
      <point x="829" y="1595" type="line"/>
      <point x="633" y="1595"/>
      <point x="405" y="1570"/>
      <point x="405" y="1329" type="curve" smooth="yes"/>
      <point x="405" y="943" type="line" smooth="yes"/>
      <point x="405" y="839"/>
      <point x="395" y="744"/>
      <point x="188" y="744" type="curve"/>
      <point x="188" y="533" type="line"/>
      <point x="396" y="533"/>
      <point x="405" y="437"/>
      <point x="405" y="334" type="curve" smooth="yes"/>
      <point x="405" y="-52" type="line" smooth="yes"/>
      <point x="405" y="-293"/>
      <point x="633" y="-318"/>
    </contour>
  </outline>
</glyph>
<glyph name="uni00AD" format="1">
  <advance width="1060"/>
  <unicode hex="00AD"/>
  <outline>
    <contour>
      <point x="200" y="89" type="line"/>
      <point x="849" y="89" type="line"/>
      <point x="849" y="323" type="line"/>
      <point x="200" y="323" type="line"/>
    </contour>
  </outline>
</glyph>
<glyph name="registered" format="1">
  <advance width="1902"/>
  <unicode hex="00AE"/>
  <outline>
    <contour>
      <point x="902" y="-55" type="curve" smooth="yes"/>
      <point x="1334" y="-55"/>
      <point x="1686" y="286"/>
      <point x="1686" y="729" type="curve" smooth="yes"/>
      <point x="1686" y="1170"/>
      <point x="1334" y="1511"/>
      <point x="902" y="1511" type="curve" smooth="yes"/>
      <point x="469" y="1511"/>
      <point x="118" y="1170"/>
      <point x="118" y="729" type="curve" smooth="yes"/>
      <point x="118" y="286"/>
      <point x="469" y="-55"/>
    </contour>
    <contour>
      <point x="902" y="103" type="curve" smooth="yes"/>
      <point x="565" y="103"/>
      <point x="291" y="377"/>
      <point x="291" y="729" type="curve" smooth="yes"/>
      <point x="291" y="1080"/>
      <point x="565" y="1353"/>
      <point x="902" y="1353" type="curve" smooth="yes"/>
      <point x="1239" y="1353"/>
      <point x="1513" y="1080"/>
      <point x="1513" y="729" type="curve" smooth="yes"/>
      <point x="1513" y="377"/>
      <point x="1239" y="103"/>
    </contour>
    <contour>
      <point x="774" y="823" type="line"/>
      <point x="774" y="1055" type="line"/>
      <point x="850" y="1055" type="line"/>
      <point x="899" y="1055" type="line" smooth="yes"/>
      <point x="1018" y="1055"/>
      <point x="1064" y="1049"/>
      <point x="1064" y="938" type="curve" smooth="yes"/>
      <point x="1064" y="841"/>
      <point x="998" y="823"/>
      <point x="858" y="823" type="curve" smooth="yes"/>
    </contour>
    <contour>
      <point x="602" y="322" type="line"/>
      <point x="775" y="322" type="line"/>
      <point x="775" y="707" type="line"/>
      <point x="852" y="707" type="line"/>
      <point x="853" y="706"/>
      <point x="1081" y="322"/>
      <point x="1081" y="322" type="curve"/>
      <point x="1283" y="322" type="line"/>
      <point x="1283" y="322"/>
      <point x="1036" y="716"/>
      <point x="1035" y="718" type="curve"/>
      <point x="1187" y="758"/>
      <point x="1236" y="825"/>
      <point x="1236" y="945" type="curve" smooth="yes"/>
      <point x="1236" y="1151"/>
      <point x="1090" y="1187"/>
      <point x="883" y="1187" type="curve" smooth="yes"/>
      <point x="602" y="1187" type="line"/>
    </contour>
  </outline>
</glyph>
<glyph name="cedilla" format="1">
  <advance width="759"/>
  <unicode hex="00B8"/>
  <outline>
    <contour>
      <point x="449" y="-419" type="curve" smooth="yes"/>
      <point x="590" y="-419"/>
      <point x="703" y="-341"/>
      <point x="703" y="-207" type="curve" smooth="yes"/>
      <point x="703" y="-96"/>
      <point x="635" y="-36"/>
      <point x="536" y="-36" type="curve" smooth="yes"/>
      <point x="500" y="-36"/>
      <point x="460" y="-44"/>
      <point x="418" y="-60" type="curve"/>
      <point x="418" y="-132" type="line"/>
      <point x="430" y="-131"/>
      <point x="441" y="-130"/>
      <point x="451" y="-130" type="curve" smooth="yes"/>
      <point x="513" y="-130"/>
      <point x="538" y="-156"/>
      <point x="538" y="-199" type="curve" smooth="yes"/>
      <point x="537" y="-242"/>
      <point x="501" y="-281"/>
      <point x="426" y="-281" type="curve" smooth="yes"/>
      <point x="397" y="-281"/>
      <point x="362" y="-275"/>
      <point x="321" y="-261" type="curve"/>
      <point x="278" y="-383" type="line"/>
      <point x="335" y="-407"/>
      <point x="394" y="-419"/>
    </contour>
  </outline>
</glyph>
<glyph name="uni0311" format="1">
  <advance width="872"/>
  <unicode hex="0311"/>
  <outline>
    <contour>
      <point x="447" y="1081" type="move" name="_top"/>
    </contour>
    <contour>
      <point x="146" y="1321" type="curve"/>
      <point x="337" y="1321" type="line"/>
      <point x="337" y="1377"/>
      <point x="380" y="1412"/>
      <point x="445" y="1412" type="curve" smooth="yes"/>
      <point x="510" y="1412"/>
      <point x="554" y="1377"/>
      <point x="554" y="1321" type="curve"/>
      <point x="742" y="1321" type="line"/>
      <point x="742" y="1490"/>
      <point x="627" y="1595"/>
      <point x="445" y="1595" type="curve" smooth="yes"/>
      <point x="263" y="1595"/>
      <point x="146" y="1490"/>
    </contour>
  </outline>
</glyph>
<glyph name="uni0394" format="1">
  <advance width="1334"/>
  <unicode hex="0394"/>
  <outline>
    <contour>
      <point x="328" y="211" type="line"/>
      <point x="648" y="1249" type="line"/>
      <point x="976" y="211" type="line"/>
    </contour>
    <contour>
      <point x="18" y="0" type="line"/>
      <point x="1281" y="0" type="line"/>
      <point x="772" y="1528" type="line"/>
      <point x="527" y="1528" type="line"/>
    </contour>
  </outline>
</glyph>
<glyph name="uni03A9" format="1">
  <advance width="2048"/>
  <unicode hex="03A9"/>
  <outline>
    <contour>
      <point x="83.4009" y="-45" type="line"/>
      <point x="56.8625" y="162" type="line"/>
      <point x="341.793" y="162" type="line"/>
      <point x="183.514" y="310.67"/>
      <point x="78" y="520.52"/>
      <point x="78" y="773" type="curve" smooth="yes"/>
      <point x="78" y="1208.56"/>
      <point x="397.274" y="1492"/>
      <point x="816" y="1492" type="curve" smooth="yes"/>
      <point x="1253.19" y="1492"/>
      <point x="1531" y="1176.05"/>
      <point x="1531" y="770" type="curve" smooth="yes"/>
      <point x="1531" y="509.804"/>
      <point x="1402.07" y="304.129"/>
      <point x="1255.11" y="162" type="curve"/>
      <point x="1541.28" y="162" type="line"/>
      <point x="1518.28" y="-45" type="line"/>
      <point x="927.407" y="-45" type="line"/>
      <point x="925.781" y="133.937" type="line"/>
      <point x="946.038" y="147.442" type="line" smooth="yes"/>
      <point x="1143.04" y="278.776"/>
      <point x="1285" y="490.403"/>
      <point x="1285" y="751" type="curve" smooth="yes"/>
      <point x="1285" y="1039.25"/>
      <point x="1125.47" y="1274"/>
      <point x="810" y="1274" type="curve" smooth="yes"/>
      <point x="521.419" y="1274"/>
      <point x="324" y="1071.56"/>
      <point x="324" y="756" type="curve" smooth="yes"/>
      <point x="324" y="496.013"/>
      <point x="458.577" y="277.276"/>
      <point x="658.044" y="148.041" type="curve"/>
      <point x="678.778" y="134.642" type="line"/>
      <point x="680.411" y="-45" type="line"/>
    </contour>
  </outline>
</glyph>
<glyph name="pi" format="1">
  <advance width="1490"/>
  <unicode hex="03C0"/>
  <outline>
    <contour>
      <point x="1149" y="-13" type="curve" smooth="yes"/>
      <point x="1227" y="-13"/>
      <point x="1291" y="11"/>
      <point x="1324" y="43" type="curve"/>
      <point x="1324" y="170" type="line"/>
      <point x="1305" y="164"/>
      <point x="1290" y="163"/>
      <point x="1269" y="163" type="curve" smooth="yes"/>
      <point x="1147.53" y="163"/>
      <point x="1117" y="262.193"/>
      <point x="1117" y="403.457" type="curve" smooth="yes"/>
      <point x="1117" y="529.364"/>
      <point x="1141.25" y="688.693"/>
      <point x="1147" y="841" type="curve"/>
      <point x="1382" y="841" type="line"/>
      <point x="1382" y="1082" type="line"/>
      <point x="502" y="1082" type="line" smooth="yes"/>
      <point x="268" y="1082"/>
      <point x="195" y="927"/>
      <point x="195" y="712" type="curve"/>
      <point x="289" y="712" type="line"/>
      <point x="301" y="788"/>
      <point x="340" y="841"/>
      <point x="419" y="841" type="curve" smooth="yes"/>
      <point x="485" y="841" type="line"/>
      <point x="421" y="383" type="line" smooth="yes"/>
      <point x="392" y="171"/>
      <point x="256" y="110"/>
      <point x="207" y="110" type="curve"/>
      <point x="207" y="4" type="line"/>
      <point x="548" y="4"/>
      <point x="617" y="104"/>
      <point x="627" y="319" type="curve" smooth="yes"/>
      <point x="653" y="841" type="line"/>
      <point x="972" y="841" type="line"/>
      <point x="935.97" y="680.579"/>
      <point x="894.341" y="488.257"/>
      <point x="894.341" y="326.772" type="curve" smooth="yes"/>
      <point x="894.341" y="135.182"/>
      <point x="952.938" y="-13"/>
    </contour>
  </outline>
</glyph>
<glyph name="quotedblbase" format="1">
  <advance width="963"/>
  <unicode hex="201E"/>
  <outline>
    <contour>
      <point x="518" y="-380" type="line"/>
      <point x="729" y="-380" type="line"/>
      <point x="852" y="141" type="line"/>
      <point x="554" y="141" type="line"/>
    </contour>
    <contour>
      <point x="104" y="-380" type="line"/>
      <point x="315" y="-380" type="line"/>
      <point x="439" y="141" type="line"/>
      <point x="141" y="141" type="line"/>
    </contour>
  </outline>
</glyph>
<glyph name="perthousand" format="1">
  <advance width="3221"/>
  <unicode hex="2030"/>
  <outline>
    <component base="percent" xOffset="49"/>
    <contour>
      <point x="2726" y="-38" type="curve" smooth="yes"/>
      <point x="2975" y="-38"/>
      <point x="3149" y="145"/>
      <point x="3149" y="379" type="curve" smooth="yes"/>
      <point x="3149" y="615"/>
      <point x="2978" y="788"/>
      <point x="2726" y="788" type="curve" smooth="yes"/>
      <point x="2478" y="788"/>
      <point x="2305" y="610"/>
      <point x="2305" y="379" type="curve" smooth="yes"/>
      <point x="2305" y="145"/>
      <point x="2474" y="-38"/>
    </contour>
    <contour>
      <point x="2730" y="157" type="curve" smooth="yes"/>
      <point x="2615" y="157"/>
      <point x="2533" y="256"/>
      <point x="2533" y="382" type="curve" smooth="yes"/>
      <point x="2533" y="506"/>
      <point x="2615" y="603"/>
      <point x="2730" y="603" type="curve" smooth="yes"/>
      <point x="2843" y="603"/>
      <point x="2923" y="511"/>
      <point x="2923" y="382" type="curve" smooth="yes"/>
      <point x="2923" y="258"/>
      <point x="2844" y="157"/>
    </contour>
  </outline>
</glyph>
<glyph name="fraction" format="1">
  <advance width="1179"/>
  <unicode hex="2044"/>
  <outline>
    <contour>
      <point x="45" y="0" type="line"/>
      <point x="263" y="0" type="line"/>
      <point x="1292" y="1573" type="line"/>
      <point x="1088" y="1573" type="line"/>
    </contour>
  </outline>
</glyph>
<glyph name="trademark" format="1">
  <advance width="2050"/>
  <unicode hex="2122"/>
  <outline>
    <contour>
      <point x="341" y="521" type="line"/>
      <point x="549" y="521" type="line"/>
      <point x="549" y="1296" type="line"/>
      <point x="804" y="1296" type="line"/>
      <point x="804" y="1456" type="line"/>
      <point x="86" y="1456" type="line"/>
      <point x="86" y="1296" type="line"/>
      <point x="341" y="1296" type="line"/>
    </contour>
    <contour>
      <point x="906" y="521" type="line"/>
      <point x="1102" y="521" type="line"/>
      <point x="1121" y="1088" type="line"/>
      <point x="1359" y="598" type="line"/>
      <point x="1462" y="598" type="line"/>
      <point x="1701" y="1087" type="line"/>
      <point x="1720" y="521" type="line"/>
      <point x="1915" y="521" type="line"/>
      <point x="1895" y="1456" type="line"/>
      <point x="1687" y="1456" type="line"/>
      <point x="1412" y="879" type="line"/>
      <point x="1134" y="1456" type="line"/>
      <point x="926" y="1456" type="line"/>
    </contour>
  </outline>
</glyph>
